HIERARCHY
ROOT Hips
{
	OFFSET 0.000000 0.000000 0.000000
	CHANNELS 6 Xposition Yposition Zposition Xrotation Yrotation Zrotation
	JOINT LeftUpLeg_virtual
	{
		OFFSET 0.000000 0.000000 0.000000
		CHANNELS 3 Xrotation Yrotation Zrotation
		JOINT LeftUpLeg
		{
			OFFSET 10.205400 -3.823500 0.155100
			CHANNELS 3 Xrotation Yrotation Zrotation
			JOINT LeftLeg
			{
				OFFSET 0.708757 -12.982077 0.567790
				CHANNELS 3 Xrotation Yrotation Zrotation
				JOINT LeftFoot
				{
					OFFSET -0.708756 -10.717838 -2.184338
					CHANNELS 3 Xrotation Yrotation Zrotation
					JOINT LeftToeBase
					{
						OFFSET 0.108149 -7.191104 7.560241
						CHANNELS 3 Xrotation Yrotation Zrotation
						JOINT LeftToe_End
						{
							OFFSET 0.070230 0.081724 4.490308
							CHANNELS 3 Xrotation Yrotation Zrotation
							End Site
							{
								OFFSET 0 0 0
							}
						}
					}
				}
			}
		}
	}
	JOINT RightUpLeg_virtual
	{
		OFFSET 0.000000 0.000000 0.000000
		CHANNELS 3 Xrotation Yrotation Zrotation
		JOINT RightUpLeg
		{
			OFFSET -10.205400 -3.823500 0.005500
			CHANNELS 3 Xrotation Yrotation Zrotation
			JOINT RightLeg
			{
				OFFSET -0.708756 -12.982134 0.610632
				CHANNELS 3 Xrotation Yrotation Zrotation
				JOINT RightFoot
				{
					OFFSET 0.708754 -10.717769 -1.945823
					CHANNELS 3 Xrotation Yrotation Zrotation
					JOINT RightToeBase
					{
						OFFSET -0.108140 -7.191069 7.372968
						CHANNELS 3 Xrotation Yrotation Zrotation
						JOINT RightToe_End
						{
							OFFSET -0.070227 0.081735 4.479403
							CHANNELS 3 Xrotation Yrotation Zrotation
							End Site
							{
								OFFSET 0 0 0
							}
						}
					}
				}
			}
		}
	}
	JOINT Spine_virtual
	{
		OFFSET 0.000000 0.000000 0.000000
		CHANNELS 3 Xrotation Yrotation Zrotation
		JOINT Spine
		{
			OFFSET 0.000000 6.876099 0.125700
			CHANNELS 3 Xrotation Yrotation Zrotation
			JOINT Spine1
			{
				OFFSET 0.000000 5.730043 0.104720
				CHANNELS 3 Xrotation Yrotation Zrotation
				JOINT Spine1_split
				{
					OFFSET 0.000000 5.730043 0.104720
					CHANNELS 3 Xrotation Yrotation Zrotation
					JOINT Spine2
					{
						OFFSET 0.000000 5.730043 0.104720
						CHANNELS 3 Xrotation Yrotation Zrotation
						JOINT Neck_virtual
						{
							OFFSET 0.000000 0.000000 0.000000
							CHANNELS 3 Xrotation Yrotation Zrotation
							JOINT Neck
							{
								OFFSET 0.000000 10.314075 0.188496
								CHANNELS 3 Xrotation Yrotation Zrotation
								JOINT Head
								{
									OFFSET 0.000000 7.643700 -2.377400
									CHANNELS 3 Xrotation Yrotation Zrotation
									JOINT HeadTop_End
									{
										OFFSET 0.000000 43.788605 -13.619600
										CHANNELS 3 Xrotation Yrotation Zrotation
										End Site
										{
											OFFSET 0 0 0
										}
									}
								}
							}
						}
						JOINT LeftShoulder_virtual
						{
							OFFSET 0.000000 0.000000 0.000000
							CHANNELS 3 Xrotation Yrotation Zrotation
							JOINT LeftShoulder
							{
								OFFSET 2.196100 4.412489 0.087492
								CHANNELS 3 Xrotation Yrotation Zrotation
								JOINT LeftShoulder_split
								{
									OFFSET 2.196100 4.412489 0.087492
									CHANNELS 3 Xrotation Yrotation Zrotation
									JOINT LeftArm
									{
										OFFSET 8.771219 -2.981674 -0.026999
										CHANNELS 3 Xrotation Yrotation Zrotation
										JOINT LeftForeArm
										{
											OFFSET 8.512804 0.000000 -0.000000
											CHANNELS 3 Xrotation Yrotation Zrotation
											JOINT LeftHand
											{
												OFFSET 18.484802 0.000000 -0.000000
												CHANNELS 3 Xrotation Yrotation Zrotation
												End Site
												{
													OFFSET 0 0 0
												}
											}
										}
									}
								}
							}
						}
						JOINT RightShoulder_virtual
						{
							OFFSET 0.000000 0.000000 0.000000
							CHANNELS 3 Xrotation Yrotation Zrotation
							JOINT RightShoulder
							{
								OFFSET -2.196100 4.412496 0.070690
								CHANNELS 3 Xrotation Yrotation Zrotation
								JOINT RightShoulder_split
								{
									OFFSET -2.196100 4.412496 0.070690
									CHANNELS 3 Xrotation Yrotation Zrotation
									JOINT RightArm
									{
										OFFSET -8.771282 -2.981682 -0.094208
										CHANNELS 3 Xrotation Yrotation Zrotation
										JOINT RightForeArm
										{
											OFFSET -8.494598 0.000000 0.000000
											CHANNELS 3 Xrotation Yrotation Zrotation
											JOINT RightHand
											{
												OFFSET -18.483803 0.000000 0.000001
												CHANNELS 3 Xrotation Yrotation Zrotation
												End Site
												{
													OFFSET 0 0 0
												}
											}
										}
									}
								}
							}
						}
					}
				}
			}
		}
	}
}
MOTION
Frames: 11
Frame Time: 0.03333333
-1.679810 29.519648 -0.366430 0.000000 0.000000 0.000000 -4.269275 -7.804448 5.845492 -66.171624 6.741873 5.892995 58.378132 0.847563 -6.145313 4.795489 -0.565883 4.062856 -1.436969 0.027129 2.819018 0.000000 0.000000 0.000000 -4.148631 -9.478627 5.533143 -10.575112 -9.362605 -6.637717 52.121129 14.541621 5.027663 -39.106528 2.118178 -8.180068 -3.976563 -0.149016 -0.628814 0.000000 0.000000 0.000000 -3.283365 -7.106009 4.616314 13.458889 0.335391 -4.245100 2.424575 0.216338 -0.929836 0.530780 -0.836506 0.324480 0.000000 0.000000 0.000000 2.846538 0.184455 -0.777539 1.924532 -0.490054 0.819205 22.841099 5.465993 -0.338153 0.000000 0.000000 0.000000 2.671736 0.270135 -0.799933 1.522748 1.932269 -9.202897 0.588890 -2.139189 -0.768219 14.269102 -25.698619 -53.774103 0.561682 -33.218434 0.207153 0.000000 0.000000 0.000000 2.699207 -0.130207 -1.035150 -0.032817 5.927825 18.547537 -0.080288 3.445903 -1.854916 14.468161 20.140862 48.395244 1.280359 40.705366 -0.327247 0.000000 0.000000 0.000000 
-1.730393 29.622911 -0.679750 0.000000 0.000000 0.000000 -3.310163 -7.735218 6.162750 -66.104558 6.340740 5.547622 50.809521 1.293510 -5.831868 7.271587 1.179938 3.040139 3.023887 0.500060 0.603103 0.000000 0.000000 0.000000 -3.682508 -8.807883 5.889107 -10.971732 -8.881475 -6.103464 51.632303 13.543335 4.510436 -39.237579 1.395110 -9.315340 -3.535269 -0.094451 -0.304226 0.000000 0.000000 0.000000 -2.682258 -6.295966 5.161754 13.732092 0.262994 -4.613132 2.624035 0.255971 -0.993698 0.855487 -0.940184 0.653106 0.000000 0.000000 0.000000 2.967673 0.201594 -0.844541 2.206050 -0.562510 0.761241 22.649421 5.363724 -0.209059 0.000000 0.000000 0.000000 2.792535 0.332181 -0.884316 1.659022 1.973526 -9.287277 0.706036 -2.344071 -0.579838 15.003865 -26.739125 -53.974733 0.303261 -33.277809 -0.134625 0.000000 0.000000 0.000000 2.840928 -0.103564 -1.135748 -0.099044 6.666860 18.736150 -0.007312 3.555359 -1.546590 14.288511 19.468746 47.975706 1.050376 42.473391 -0.183762 0.000000 0.000000 0.000000 
-1.775192 29.714859 -1.040138 0.000000 0.000000 0.000000 -2.487082 -7.284137 6.142143 -66.251291 5.942296 5.958900 45.836467 0.985476 -5.245606 8.872509 2.329252 1.671136 5.679375 0.824307 -1.191940 0.000000 0.000000 0.000000 -3.039735 -7.794912 5.916694 -11.798852 -8.705955 -5.350450 50.976253 12.466450 4.226275 -38.913640 0.873362 -10.476820 -3.124052 -0.011003 -0.004057 0.000000 0.000000 0.000000 -2.012316 -5.392563 5.408137 13.968362 0.120167 -4.705757 2.809837 0.239087 -1.024937 1.183487 -0.971460 0.813997 0.000000 0.000000 0.000000 3.045787 0.156569 -0.887396 2.415375 -0.615666 0.799488 22.323546 5.270957 -0.003193 0.000000 0.000000 0.000000 2.868487 0.322414 -0.943000 1.782377 1.880740 -9.280322 0.881100 -2.556668 -0.476129 15.361365 -27.546138 -54.203586 -0.014241 -33.289857 -0.563008 0.000000 0.000000 0.000000 2.939087 -0.128916 -1.189145 -0.174690 7.285861 19.013194 0.231630 3.559252 -1.379063 13.730074 18.807126 47.469012 0.830833 44.336950 -0.022129 0.000000 0.000000 0.000000 
-1.827273 29.838774 -1.401682 0.000000 0.000000 0.000000 -1.576935 -6.232491 5.943630 -65.928544 6.041961 6.513557 43.726673 0.136174 -4.542862 7.652921 2.522917 1.625164 4.962154 0.892497 -1.527538 0.000000 0.000000 0.000000 -2.242266 -6.666156 5.762392 -13.204485 -8.877743 -4.646253 50.009907 11.613533 4.138911 -37.627331 0.632667 -11.075834 -2.917413 0.032381 0.192250 0.000000 0.000000 0.000000 -1.012514 -4.375851 5.463760 14.067477 -0.145291 -4.534743 2.952292 0.152454 -1.028320 1.327605 -1.169989 0.730468 0.000000 0.000000 0.000000 3.099194 0.035119 -0.885995 2.483759 -0.627189 0.895251 21.916310 5.201831 0.219125 0.000000 0.000000 0.000000 2.906962 0.221691 -0.957938 1.882141 1.610636 -9.148735 1.195433 -2.755605 -0.358073 15.361970 -28.186942 -54.410127 -0.260855 -33.250433 -0.956490 0.000000 0.000000 0.000000 2.995348 -0.215511 -1.173987 -0.249421 7.732449 19.408324 0.528748 3.434915 -1.324413 12.997129 18.300689 46.768747 0.714611 45.709993 0.085041 0.000000 0.000000 0.000000 
-1.902768 29.996471 -1.713762 0.000000 0.000000 0.000000 -0.482948 -4.569754 5.656046 -65.090678 6.467467 6.512304 44.639985 -1.294107 -3.882929 4.193210 1.752062 2.628096 2.831273 0.727463 -1.208192 0.000000 0.000000 0.000000 -1.119913 -5.773438 5.573176 -15.295983 -9.301900 -4.268522 48.590447 11.114389 4.242311 -35.239719 0.659326 -10.778904 -3.014725 0.001357 0.260781 0.000000 0.000000 0.000000 0.351145 -3.410417 5.357459 13.975117 -0.528890 -4.200839 3.026166 -0.009077 -0.999815 1.257850 -1.457830 0.487616 0.000000 0.000000 0.000000 3.156027 -0.143125 -0.825625 2.436311 -0.651315 0.998369 21.526198 5.124341 0.352546 0.000000 0.000000 0.000000 2.920732 0.042927 -0.916237 1.959094 1.205960 -8.974507 1.612142 -2.931325 -0.270752 15.163971 -28.731232 -54.559315 -0.341647 -33.282136 -1.182888 0.000000 0.000000 0.000000 3.005961 -0.374123 -1.076917 -0.303858 7.990736 19.881255 0.807475 3.258914 -1.444203 12.333646 17.932809 46.047131 0.774200 46.223346 0.075926 0.000000 0.000000 0.000000 
-1.995389 30.189573 -1.966141 0.000000 0.000000 0.000000 0.950744 -2.778355 5.402438 -63.385863 7.075401 5.804449 47.841343 -2.847800 -3.453943 0.357328 0.733736 3.966243 0.611535 0.419356 -0.395577 0.000000 0.000000 0.000000 0.397186 -5.274512 5.446923 -17.701617 -9.857014 -4.183861 46.600619 10.987435 4.501973 -32.147662 0.985405 -9.754772 -3.264111 -0.098137 0.182918 0.000000 0.000000 0.000000 2.146214 -2.678315 5.153307 13.680991 -1.028037 -3.771590 3.017354 -0.231181 -0.943801 1.049169 -1.447947 0.157166 0.000000 0.000000 0.000000 3.213517 -0.369748 -0.722964 2.354248 -0.639298 1.077581 21.266955 5.028597 0.330349 0.000000 0.000000 0.000000 2.917574 -0.192594 -0.828878 2.020944 0.790233 -8.791195 1.997338 -3.115185 -0.208227 15.041065 -29.224819 -54.583153 -0.176869 -33.478425 -1.152537 0.000000 0.000000 0.000000 3.003814 -0.583187 -0.921335 -0.332651 8.037259 20.353223 0.932566 3.164026 -1.710141 12.083883 17.580622 45.494790 1.011197 46.031261 -0.068816 0.000000 0.000000 0.000000 
-2.087881 30.401674 -2.200050 0.000000 0.000000 0.000000 2.775313 -1.188366 5.168218 -60.693908 7.649427 4.455891 51.403833 -3.895685 -3.394002 -2.111263 0.516260 4.710654 -0.734985 0.110618 0.701953 0.000000 0.000000 0.000000 2.194126 -5.047374 5.343210 -19.940888 -10.374315 -4.355274 44.548348 10.931235 4.802952 -29.210482 1.500194 -8.516406 -3.379406 -0.203839 -0.085934 0.000000 0.000000 0.000000 4.252423 -2.252279 4.945034 13.275338 -1.611037 -3.297631 2.961823 -0.462176 -0.878079 0.778973 -1.349613 -0.035263 0.000000 0.000000 0.000000 3.265491 -0.609482 -0.604450 2.311619 -0.583328 1.051269 21.196927 4.872672 0.151127 0.000000 0.000000 0.000000 2.881505 -0.443152 -0.721905 2.069576 0.420684 -8.677568 2.235145 -3.292366 -0.150434 15.260070 -29.627557 -54.428978 0.146942 -33.872346 -0.908157 0.000000 0.000000 0.000000 2.971459 -0.812290 -0.746620 -0.326494 7.940515 20.748851 0.898226 3.188089 -2.060821 12.356230 17.013055 45.354519 1.320686 45.489927 -0.293317 0.000000 0.000000 0.000000 
-2.139498 30.545303 -2.433802 0.000000 0.000000 0.000000 4.661326 -0.209739 5.012668 -57.590058 7.993429 3.004326 54.009868 -4.301359 -3.824756 -2.441801 1.397684 4.429034 -0.608985 -0.004541 1.629978 0.000000 0.000000 0.000000 4.258498 -4.901926 5.298410 -21.854637 -10.823161 -4.755282 42.842437 10.638807 5.130623 -26.995421 1.906306 -7.410147 -3.389643 -0.259575 -0.540013 0.000000 0.000000 0.000000 6.258508 -2.070202 4.763861 12.976769 -2.196183 -2.816375 2.884966 -0.651987 -0.816242 0.623730 -0.817209 -0.099341 0.000000 0.000000 0.000000 3.310040 -0.812552 -0.515014 2.368512 -0.516477 0.910376 21.280477 4.598866 -0.169291 0.000000 0.000000 0.000000 2.847902 -0.664555 -0.636379 2.113105 0.144105 -8.756978 2.198401 -3.376055 -0.224661 15.893806 -29.840905 -54.066596 0.495881 -34.220539 -0.552164 0.000000 0.000000 0.000000 2.948065 -1.021540 -0.593440 -0.290537 7.754931 20.987967 0.751354 3.317848 -2.454946 13.099142 16.177233 45.759228 1.602482 44.967288 -0.534579 0.000000 0.000000 0.000000 
-2.182961 30.613422 -2.720762 0.000000 0.000000 0.000000 6.407343 0.301653 5.017027 -54.614708 8.213117 1.758806 54.777468 -4.117212 -4.515908 -0.601772 2.959983 2.713355 1.042000 0.128151 2.051664 0.000000 0.000000 0.000000 6.097064 -4.404445 5.285951 -23.479993 -11.097905 -5.317813 41.923425 10.053951 5.297905 -25.667340 1.942658 -6.486435 -3.443932 -0.259931 -1.111466 0.000000 0.000000 0.000000 7.975598 -1.645976 4.633999 12.960615 -2.710098 -2.316847 2.830846 -0.762378 -0.780474 0.534279 -0.106837 -0.040055 0.000000 0.000000 0.000000 3.328494 -0.943039 -0.496060 2.519129 -0.390208 0.650042 21.382308 4.136778 -0.491731 0.000000 0.000000 0.000000 2.845560 -0.818663 -0.593806 2.130516 -0.066760 -9.032509 1.957692 -3.256701 -0.275749 16.779242 -29.858981 -53.552153 0.726680 -34.378753 -0.228484 0.000000 0.000000 0.000000 2.947033 -1.158854 -0.512874 -0.245624 7.543060 21.063393 0.462083 3.420734 -2.776882 14.095461 15.226542 46.635733 1.767926 44.530545 -0.736072 0.000000 0.000000 0.000000 
-2.216933 30.586067 -3.033867 0.000000 0.000000 0.000000 7.689701 0.689973 5.218572 -52.755975 8.341182 0.834310 53.569652 -3.712527 -4.931053 2.365591 4.210662 -0.216174 3.171117 0.377122 2.049468 0.000000 0.000000 0.000000 7.607974 -3.359185 5.340583 -25.170000 -11.130095 -6.105229 41.838471 9.078354 5.259021 -25.004947 1.483685 -5.819258 -3.688991 -0.197523 -1.642759 0.000000 0.000000 0.000000 9.251870 -0.704059 4.614794 13.296275 -3.058579 -1.829068 2.842383 -0.765235 -0.767510 0.514006 0.309559 0.027769 0.000000 0.000000 0.000000 3.336682 -0.957204 -0.542772 2.722336 -0.289045 0.269926 21.350229 3.385855 -0.678129 0.000000 0.000000 0.000000 2.901593 -0.874518 -0.592960 2.107070 -0.267883 -9.524677 1.586573 -2.936304 -0.359563 17.472901 -29.803961 -53.018292 0.707237 -34.345125 -0.064500 0.000000 0.000000 0.000000 2.979900 -1.203966 -0.506308 -0.197353 7.348265 21.011861 0.222970 3.318516 -2.964478 14.989043 14.479938 47.814005 1.746556 43.770799 -0.816253 0.000000 0.000000 0.000000 
-2.219088 30.531940 -3.369944 0.000000 0.000000 0.000000 8.361230 1.299721 5.641746 -52.342168 8.351703 -0.101467 50.591949 -3.213311 -4.692566 4.100751 4.438174 -2.140926 4.658373 0.542234 1.674831 0.000000 0.000000 0.000000 8.756617 -1.817685 5.543151 -26.755852 -11.000060 -6.983696 41.693729 7.658296 5.093307 -24.602852 0.564193 -5.423030 -4.107455 -0.134568 -1.935466 0.000000 0.000000 0.000000 10.111835 0.802372 4.661260 13.963381 -3.217533 -1.404671 2.914880 -0.673192 -0.754347 0.534816 0.765120 0.044724 0.000000 0.000000 0.000000 3.347446 -0.861270 -0.629515 2.919278 -0.252694 -0.143223 21.091387 2.308927 -0.619914 0.000000 0.000000 0.000000 3.039975 -0.825298 -0.602407 2.049157 -0.425169 -10.201163 1.154371 -2.539366 -0.471061 17.491824 -29.908135 -52.595383 0.550628 -34.266998 -0.037453 0.000000 0.000000 0.000000 3.084107 -1.143723 -0.548941 -0.157089 7.119015 20.847078 0.061659 3.043708 -2.961175 15.483716 14.338256 49.065682 1.568391 42.297039 -0.772234 0.000000 0.000000 0.000000 
